<mxfile host="app.diagrams.net" modified="2024-05-31T20:23:17.133Z" agent="Mozilla/5.0 (Windows NT 10.0; Win64; x64) AppleWebKit/537.36 (KHTML, like Gecko) Chrome/125.0.0.0 Safari/537.36" etag="LVzeLnKlU6SCq8yuy4-6" version="24.4.13" type="github">
  <diagram name="Page-1" id="QvE5s0dXJsq5SlCrJO8p">
    <mxGraphModel dx="2261" dy="772" grid="1" gridSize="10" guides="1" tooltips="1" connect="1" arrows="1" fold="1" page="1" pageScale="1" pageWidth="827" pageHeight="1169" math="0" shadow="0">
      <root>
        <mxCell id="0" />
        <mxCell id="1" parent="0" />
        <mxCell id="LGdwHQYGaz8BIS5lbqM_-1" value="Doador APP (Mobile)" style="whiteSpace=wrap;html=1;aspect=fixed;" vertex="1" parent="1">
          <mxGeometry x="-280" y="350" width="430" height="430" as="geometry" />
        </mxCell>
        <mxCell id="LGdwHQYGaz8BIS5lbqM_-2" value="&lt;span style=&quot;font-weight: 400;&quot;&gt;Doador APP (Mobile)&lt;/span&gt;" style="swimlane;whiteSpace=wrap;html=1;" vertex="1" parent="1">
          <mxGeometry x="310" y="300" width="410" height="400" as="geometry">
            <mxRectangle x="310" y="300" width="150" height="30" as="alternateBounds" />
          </mxGeometry>
        </mxCell>
      </root>
    </mxGraphModel>
  </diagram>
</mxfile>
